<svg width="21" height="18" viewBox="0 0 21 18" fill="none" xmlns="http://www.w3.org/2000/svg">
<path d="M19.6237 6.65702L18.019 1.38682C17.9493 1.15786 17.7263 1 17.4725 1H13.6384L14.0887 6.06999C14.1035 6.23591 14.1995 6.38578 14.3519 6.47104C14.7207 6.67729 15.4432 7.05951 16.0067 7.22219C16.9689 7.49997 18.3757 7.39979 19.1768 7.30734C19.5099 7.26894 19.716 6.95988 19.6237 6.65702Z" stroke="black"/>
<path d="M12.2175 7.22219C12.7551 7.06697 13.4375 6.71187 13.8193 6.50048C14.0011 6.39985 14.1011 6.20978 14.0836 6.01245L13.6384 1H7.0074L6.56225 6.01245C6.54472 6.20978 6.6448 6.39985 6.82652 6.50048C7.20829 6.71187 7.89075 7.06697 8.42834 7.22219C9.84265 7.63054 10.8032 7.63054 12.2175 7.22219Z" stroke="black"/>
<path d="M2.62679 1.38682L1.02206 6.65702C0.929845 6.95988 1.13587 7.26894 1.46904 7.30734C2.27012 7.39979 3.67693 7.49997 4.63915 7.22219C5.20257 7.05951 5.92511 6.67729 6.29386 6.47104C6.44627 6.38578 6.54239 6.23591 6.55713 6.06999L7.00738 1H3.17329C2.91952 1 2.6965 1.15786 2.62679 1.38682Z" stroke="black"/>
<path d="M1.79727 7.22217V15.2221C1.79727 16.204 2.64551 16.9999 3.69186 16.9999H16.954C18.0003 16.9999 18.8485 16.204 18.8485 15.2221V7.22217" stroke="black"/>
</svg>
