<svg width="23" height="23" viewBox="0 0 23 23" fill="none" xmlns="http://www.w3.org/2000/svg">
<path d="M16.3733 2.76427C16.625 2.5126 16.9238 2.31297 17.2526 2.17676C17.5814 2.04056 17.9338 1.97046 18.2897 1.97046C18.6457 1.97046 18.9981 2.04056 19.3269 2.17676C19.6557 2.31297 19.9545 2.5126 20.2062 2.76427C20.4579 3.01595 20.6575 3.31472 20.7937 3.64354C20.9299 3.97237 21 4.3248 21 4.68072C21 5.03663 20.9299 5.38906 20.7937 5.71789C20.6575 6.04671 20.4579 6.34549 20.2062 6.59716L7.27021 19.5331L2 20.9705L3.43733 15.7002L16.3733 2.76427Z" stroke="black" stroke-width="2.33977" stroke-linecap="round" stroke-linejoin="round"/>
</svg>
