<svg width="23" height="22" viewBox="0 0 23 22" fill="none" xmlns="http://www.w3.org/2000/svg">
<path d="M16.3733 2.33317C16.625 2.0815 16.9238 1.88186 17.2526 1.74566C17.5814 1.60946 17.9338 1.53935 18.2897 1.53935C18.6457 1.53935 18.9981 1.60946 19.3269 1.74566C19.6557 1.88186 19.9545 2.0815 20.2062 2.33317C20.4579 2.58484 20.6575 2.88361 20.7937 3.21244C20.9299 3.54126 21 3.89369 21 4.24961C21 4.60552 20.9299 4.95796 20.7937 5.28678C20.6575 5.6156 20.4579 5.91438 20.2062 6.16605L7.27021 19.102L2 20.5394L3.43733 15.2691L16.3733 2.33317Z" stroke="black" stroke-width="2.33977" stroke-linecap="round" stroke-linejoin="round"/>
</svg>
