<svg width="30" height="30" viewBox="0 0 30 30" fill="none" xmlns="http://www.w3.org/2000/svg">
<g clip-path="url(#clip0_273_1212)">
<path d="M17.3262 30H12.6737C9.74762 30.0129 6.9337 28.8753 4.83869 26.8325C2.65534 24.6319 1.0617 21.9167 0.204939 18.9375C-0.0162955 18.1905 -0.0604067 17.4022 0.0761048 16.6352C0.212616 15.8682 0.525994 15.1435 0.991376 14.5187C1.45676 13.8939 2.06134 13.3862 2.75715 13.0358C3.45297 12.6853 4.22087 12.5019 4.99994 12.5H24.9999C25.7791 12.5018 26.5472 12.6851 27.2432 13.0354C27.9392 13.3858 28.544 13.8935 29.0096 14.5182C29.4752 15.143 29.7888 15.8677 29.9256 16.6348C30.0623 17.4019 30.0185 18.1903 29.7974 18.9375C28.9412 21.9172 27.347 24.6326 25.1624 26.8325C23.0674 28.876 20.2528 30.0137 17.3262 30ZM4.99994 15C4.6115 14.9981 4.22807 15.0877 3.88064 15.2614C3.5332 15.4351 3.23151 15.6881 2.99994 16C2.7623 16.3156 2.60208 16.6826 2.53217 17.0714C2.46226 17.4603 2.48462 17.8601 2.59744 18.2387C3.34498 20.8099 4.71947 23.1551 6.59744 25.0637C8.22451 26.642 10.407 27.517 12.6737 27.5H17.3262C19.5913 27.5157 21.7716 26.6397 23.3962 25.0612C25.2747 23.153 26.6493 20.8077 27.3962 18.2362C27.509 17.8576 27.5314 17.4578 27.4615 17.0689C27.3916 16.6801 27.2313 16.3131 26.9937 15.9975C26.7627 15.6867 26.4619 15.4345 26.1156 15.2613C25.7693 15.088 25.3872 14.9985 24.9999 15H4.99994ZM19.9999 7.49998C20.0021 6.7751 19.8604 6.05699 19.583 5.38731C19.3055 4.71762 18.8979 4.10968 18.3837 3.59873C18.1021 3.31851 17.879 2.98515 17.7273 2.618C17.5756 2.25086 17.4983 1.85724 17.4999 1.45998V1.24998C17.4999 0.918464 17.3682 0.600522 17.1338 0.366101C16.8994 0.131681 16.5815 -1.52588e-05 16.2499 -1.52588e-05C15.9184 -1.52588e-05 15.6005 0.131681 15.3661 0.366101C15.1316 0.600522 14.9999 0.918464 14.9999 1.24998V1.45998C14.9978 2.18504 15.1396 2.9033 15.4171 3.57318C15.6945 4.24305 16.1021 4.85123 16.6162 5.36248C16.8976 5.64256 17.1206 5.97572 17.2723 6.34264C17.424 6.70956 17.5014 7.10294 17.4999 7.49998C17.4999 7.83151 17.6316 8.14945 17.8661 8.38387C18.1005 8.61829 18.4184 8.74998 18.7499 8.74998C19.0815 8.74998 19.3994 8.61829 19.6338 8.38387C19.8682 8.14945 19.9999 7.83151 19.9999 7.49998ZM14.9999 8.74998V8.36498C15.0019 7.64025 14.8602 6.92232 14.583 6.25269C14.3058 5.58307 13.8986 4.97503 13.3849 4.46373C13.1037 4.1842 12.8807 3.8517 12.7288 3.48546C12.5769 3.11921 12.4991 2.72648 12.4999 2.32998V1.24998C12.4999 0.918464 12.3682 0.600522 12.1338 0.366101C11.8994 0.131681 11.5815 -1.52588e-05 11.2499 -1.52588e-05C10.9184 -1.52588e-05 10.6005 0.131681 10.3661 0.366101C10.1316 0.600522 9.99994 0.918464 9.99994 1.24998V2.32998C9.99808 3.05482 10.14 3.77282 10.4174 4.44246C10.6948 5.1121 11.1023 5.72009 11.6162 6.23124C11.8972 6.51087 12.1199 6.84342 12.2716 7.20966C12.4233 7.5759 12.5009 7.96857 12.4999 8.36498V8.74998C12.4999 9.08151 12.6316 9.39945 12.8661 9.63387C13.1005 9.86829 13.4184 9.99998 13.7499 9.99998C14.0815 9.99998 14.3994 9.86829 14.6338 9.63387C14.8682 9.39945 14.9999 9.08151 14.9999 8.74998Z" fill="black"/>
</g>
<defs>
<clipPath id="clip0_273_1212">
<rect width="30" height="30" fill="white"/>
</clipPath>
</defs>
</svg>
