<svg width="95" height="95" viewBox="0 0 95 95" fill="none" xmlns="http://www.w3.org/2000/svg">
<path d="M47.5 0C21.28 0 0 21.28 0 47.5C0 73.72 21.28 95 47.5 95C73.72 95 95 73.72 95 47.5C95 21.28 73.72 0 47.5 0ZM24.0825 77.33C26.125 73.055 38.57 68.875 47.5 68.875C56.43 68.875 68.9225 73.055 70.9175 77.33C64.4575 82.46 56.335 85.5 47.5 85.5C38.665 85.5 30.5425 82.46 24.0825 77.33ZM77.71 70.4425C70.9175 62.1775 54.435 59.375 47.5 59.375C40.565 59.375 24.0825 62.1775 17.29 70.4425C12.445 64.0775 9.5 56.145 9.5 47.5C9.5 26.5525 26.5525 9.5 47.5 9.5C68.4475 9.5 85.5 26.5525 85.5 47.5C85.5 56.145 82.555 64.0775 77.71 70.4425ZM47.5 19C38.285 19 30.875 26.41 30.875 35.625C30.875 44.84 38.285 52.25 47.5 52.25C56.715 52.25 64.125 44.84 64.125 35.625C64.125 26.41 56.715 19 47.5 19ZM47.5 42.75C43.5575 42.75 40.375 39.5675 40.375 35.625C40.375 31.6825 43.5575 28.5 47.5 28.5C51.4425 28.5 54.625 31.6825 54.625 35.625C54.625 39.5675 51.4425 42.75 47.5 42.75Z" fill="white"/>
</svg>
