<svg width="31" height="31" viewBox="0 0 31 31" fill="none" xmlns="http://www.w3.org/2000/svg">
<path d="M16.9582 8.20834H14.0415V14.0417H8.20817V16.9583H14.0415V22.7917H16.9582V16.9583H22.7915V14.0417H16.9582V8.20834ZM15.4998 0.916672C7.44984 0.916672 0.916504 7.45 0.916504 15.5C0.916504 23.55 7.44984 30.0833 15.4998 30.0833C23.5498 30.0833 30.0832 23.55 30.0832 15.5C30.0832 7.45 23.5498 0.916672 15.4998 0.916672ZM15.4998 27.1667C9.06859 27.1667 3.83317 21.9313 3.83317 15.5C3.83317 9.06876 9.06859 3.83334 15.4998 3.83334C21.9311 3.83334 27.1665 9.06876 27.1665 15.5C27.1665 21.9313 21.9311 27.1667 15.4998 27.1667Z" fill="#EA852F"/>
</svg>
