<svg width="25" height="25" viewBox="0 0 25 25" fill="none" xmlns="http://www.w3.org/2000/svg">
<path d="M3.40962 13.4949V11.8423H1.13659V9.21065H8.3705L11.5925 6.57904H15.5601L14.3202 2.63161H11.3652V0H15.9113L17.1523 3.94742H21.5938V7.89485H18.3934L20.0482 13.1607C21.3038 13.2069 22.5007 13.7865 23.4109 14.789C24.321 15.7915 24.8806 17.1467 24.983 18.5962C25.0854 20.0458 24.7234 21.4883 23.966 22.6486C23.2087 23.809 22.1089 24.606 20.8765 24.8878C19.6441 25.1696 18.3652 24.9164 17.2837 24.1764C16.2023 23.4365 15.3938 22.2616 15.0126 20.8758C14.6313 19.49 14.704 17.9903 15.2166 16.6625C15.7293 15.3347 16.6461 14.2718 17.7922 13.6765L16.3875 9.21065H15.3112L13.5132 16.9344L13.511 16.9331L13.5132 16.941L10.1889 18.341C10.3089 19.4493 10.1557 20.5742 9.74701 21.5859C9.33832 22.5976 8.6908 23.4549 7.87922 24.0587C7.06764 24.6625 6.1251 24.9883 5.16043 24.9983C4.19576 25.0084 3.2483 24.7024 2.42745 24.1156C1.6066 23.5288 0.945833 22.6852 0.521448 21.6822C0.0970629 20.6792 -0.0736342 19.5577 0.029066 18.4471C0.131766 17.3365 0.503675 16.2823 1.10185 15.406C1.70003 14.5297 2.50007 13.8672 3.40962 13.4949ZM5.68264 13.1936C6.43666 13.2913 7.16245 13.5821 7.8074 14.0447C8.45235 14.5074 9.00031 15.1304 9.41155 15.8686L11.6357 14.9305L12.9597 9.21065H12.3381L9.09219 11.8423H5.68264V13.1936ZM5.11439 22.3687C5.86794 22.3687 6.59064 22.0222 7.12348 21.4053C7.65632 20.7883 7.95567 19.9516 7.95567 19.0792C7.95567 18.2068 7.65632 17.3701 7.12348 16.7532C6.59064 16.1363 5.86794 15.7897 5.11439 15.7897C4.36083 15.7897 3.63814 16.1363 3.1053 16.7532C2.57245 17.3701 2.2731 18.2068 2.2731 19.0792C2.2731 19.9516 2.57245 20.7883 3.1053 21.4053C3.63814 22.0222 4.36083 22.3687 5.11439 22.3687ZM19.8891 22.3687C20.6426 22.3687 21.3653 22.0222 21.8982 21.4053C22.431 20.7883 22.7304 19.9516 22.7304 19.0792C22.7304 18.2068 22.431 17.3701 21.8982 16.7532C21.3653 16.1363 20.6426 15.7897 19.8891 15.7897C19.1355 15.7897 18.4128 16.1363 17.88 16.7532C17.3471 17.3701 17.0478 18.2068 17.0478 19.0792C17.0478 19.9516 17.3471 20.7883 17.88 21.4053C18.4128 22.0222 19.1355 22.3687 19.8891 22.3687Z" fill="black"/>
</svg>
