<svg width="24" height="13" viewBox="0 0 24 13" fill="none" xmlns="http://www.w3.org/2000/svg">
<path d="M8.7738e-05 11.1699C-0.000673294 11.0383 0.0245514 10.9078 0.074316 10.786C0.124081 10.6641 0.197407 10.5533 0.290089 10.4599L8.46008 2.28988C8.92453 1.82425 9.47629 1.45482 10.0837 1.20276C10.6912 0.950694 11.3424 0.820946 12.0001 0.820946C12.6577 0.820946 13.309 0.950694 13.9164 1.20276C14.5239 1.45482 15.0756 1.82425 15.5401 2.28988L23.7101 10.4599C23.8033 10.5531 23.8773 10.6638 23.9277 10.7856C23.9782 10.9075 24.0042 11.038 24.0042 11.1699C24.0042 11.3017 23.9782 11.4323 23.9277 11.5541C23.8773 11.676 23.8033 11.7866 23.7101 11.8799C23.6168 11.9731 23.5061 12.0471 23.3843 12.0975C23.2625 12.148 23.1319 12.174 23.0001 12.174C22.8682 12.174 22.7376 12.148 22.6158 12.0975C22.494 12.0471 22.3833 11.9731 22.2901 11.8799L14.1201 3.70988C13.5576 3.14808 12.7951 2.83252 12.0001 2.83252C11.2051 2.83252 10.4426 3.14808 9.88008 3.70988L1.71008 11.8799C1.61712 11.9736 1.50652 12.048 1.38466 12.0988C1.2628 12.1495 1.1321 12.1757 1.00009 12.1757C0.868074 12.1757 0.73737 12.1495 0.615511 12.0988C0.49365 12.048 0.383051 11.9736 0.290089 11.8799C0.197407 11.7864 0.124081 11.6756 0.074316 11.5538C0.0245514 11.432 -0.000673294 11.3015 8.7738e-05 11.1699Z" fill="black"/>
</svg>
